<?xml version="1.0" encoding="UTF-8"?>
<svg width="135px" height="40px" viewBox="0 0 135 40" version="1.1" xmlns="http://www.w3.org/2000/svg" xmlns:xlink="http://www.w3.org/1999/xlink">
    <title>Google Play</title>
    <defs>
        <linearGradient x1="60.9903275%" y1="4.94615078%" x2="26.5360307%" y2="71.8787395%" id="linearGradient-1">
            <stop stop-color="#00A0FF" offset="0%"></stop>
            <stop stop-color="#00A1FF" offset="1%"></stop>
            <stop stop-color="#00BEFF" offset="26%"></stop>
            <stop stop-color="#00D2FF" offset="51%"></stop>
            <stop stop-color="#00DFFF" offset="76%"></stop>
            <stop stop-color="#00E3FF" offset="100%"></stop>
        </linearGradient>
        <linearGradient x1="107.684729%" y1="50%" x2="-130.640394%" y2="50%" id="linearGradient-2">
            <stop stop-color="#FFE000" offset="0%"></stop>
            <stop stop-color="#FFBD00" offset="41%"></stop>
            <stop stop-color="#FFA500" offset="78%"></stop>
            <stop stop-color="#FF9C00" offset="100%"></stop>
        </linearGradient>
        <linearGradient x1="86.2709832%" y1="30.8725537%" x2="-50.1798561%" y2="136.108936%" id="linearGradient-3">
            <stop stop-color="#FF3A44" offset="0%"></stop>
            <stop stop-color="#C31162" offset="100%"></stop>
        </linearGradient>
        <linearGradient x1="-18.82494%" y1="-11.9103989%" x2="42.0863309%" y2="35.0790955%" id="linearGradient-4">
            <stop stop-color="#32A071" offset="0%"></stop>
            <stop stop-color="#2DA771" offset="7%"></stop>
            <stop stop-color="#15CF74" offset="48%"></stop>
            <stop stop-color="#06E775" offset="80%"></stop>
            <stop stop-color="#00F076" offset="100%"></stop>
        </linearGradient>
    </defs>
    <g id="Symbols" stroke="none" stroke-width="1" fill="none" fill-rule="evenodd">
        <g id="Footer" transform="translate(-118.000000, -188.000000)" fill-rule="nonzero">
            <g id="Google-Play" transform="translate(118.000000, 188.000000)">
                <rect id="Rectangle" fill="#000000" x="0" y="0" width="135" height="40" rx="5"></rect>
                <path d="M130,0.8 C132.319596,0.8 134.2,2.68040405 134.2,5 L134.2,35 C134.2,37.3195959 132.319596,39.2 130,39.2 L5,39.2 C2.68040405,39.2 0.8,37.3195959 0.8,35 L0.8,5 C0.8,2.68040405 2.68040405,0.8 5,0.8 L130,0.8 L130,0.8 Z M130,0 L5,0 C2.23857625,0 0,2.23857625 0,5 L0,35 C0,37.7614237 2.23857625,40 5,40 L130,40 C132.761424,40 135,37.7614237 135,35 L135,5 C135,2.23857625 132.761424,0 130,0 Z" id="Shape" fill="#A6A6A6"></path>
                <path d="M68.14,21.75 C65.7872765,21.7555293 63.8844985,23.6672686 63.8900115,26.0199921 C63.8955484,28.3727156 65.8072843,30.2754972 68.1600078,30.2699885 C70.5127313,30.2644558 72.4155163,28.3527235 72.41,26 C72.426473,24.8643738 71.9812316,23.7707097 71.1762551,22.9695037 C70.3712787,22.1682976 69.2755364,21.7281956 68.14,21.75 Z M68.14,28.58 C67.0832273,28.6539053 66.088673,28.0743135 65.6320213,27.1184371 C65.1753697,26.1625607 65.3494358,25.0246828 66.0709659,24.249038 C66.7924959,23.4733932 67.9148379,23.2176324 68.9011878,23.6040831 C69.8875378,23.9905338 70.5374189,24.9406494 70.54,26 C70.5725428,26.6626719 70.3360327,27.3103928 69.8841403,27.7961771 C69.432248,28.2819613 68.8032921,28.5646164 68.14,28.58 Z M58.82,21.75 C56.4672765,21.7555293 54.5644985,23.6672686 54.5700115,26.0199921 C54.5755484,28.3727156 56.4872843,30.2754972 58.8400078,30.2699885 C61.1927313,30.2644558 63.0955163,28.3527235 63.09,26 C63.106473,24.8643738 62.6612316,23.7707097 61.8562551,22.9695037 C61.0512787,22.1682976 59.9555364,21.7281956 58.82,21.75 Z M58.82,28.58 C57.7632273,28.6539053 56.768673,28.0743135 56.3120213,27.1184371 C55.8553697,26.1625607 56.0294358,25.0246828 56.7509659,24.249038 C57.4724959,23.4733932 58.5948379,23.2176324 59.5811878,23.6040831 C60.5675378,23.9905338 61.2174189,24.9406494 61.22,26 C61.2525428,26.6626719 61.0160327,27.3103928 60.5641403,27.7961771 C60.112248,28.2819613 59.4832921,28.5646164 58.82,28.58 Z M47.74,23.06 L47.74,24.86 L52.06,24.86 C51.9922634,25.7078038 51.6398446,26.5077945 51.06,27.13 C50.1836518,28.0228625 48.9699725,28.5025202 47.72,28.45 C45.0690332,28.45 42.92,26.3009668 42.92,23.65 C42.92,20.9990332 45.0690332,18.85 47.72,18.85 C48.9404476,18.8318498 50.1188954,19.2953247 51,20.14 L52.27,18.87 C51.0659807,17.6791542 49.4332385,17.0231739 47.74,17.05 C45.3189608,16.955779 43.0403936,18.1936718 41.801854,20.2760571 C40.5633145,22.3584423 40.5633145,24.9515577 41.801854,27.0339429 C43.0403936,29.1163282 45.3189608,30.354221 47.74,30.26 C49.4701987,30.3291046 51.1475475,29.655982 52.35,28.41 C53.4001185,27.2564101 53.9596631,25.7391832 53.91,24.18 C53.9135793,23.8047255 53.8834584,23.4298875 53.82,23.06 L47.74,23.06 Z M93.05,24.46 C92.5160796,22.8892101 91.0679278,21.811053 89.41,21.7499923 C88.3043635,21.7478383 87.2471451,22.2034076 86.4893794,23.0085336 C85.7316138,23.8136596 85.3408955,24.8965231 85.41,26 C85.3924407,27.8748194 86.611123,29.5374987 88.4042599,30.0851449 C90.1973968,30.632791 92.1370825,29.9347165 93.17,28.37 L91.72,27.37 C91.280167,28.103094 90.4848748,28.5483054 89.63,28.54 C88.742835,28.5766297 87.9244125,28.0641224 87.57,27.2499923 L93.26,24.9 L93.05,24.46 Z M87.25,25.88 C87.2090591,25.2535034 87.4226808,24.6369968 87.8424708,24.1701451 C88.2622608,23.7032935 88.8526897,23.4256093 89.48,23.4 C90.1364702,23.3579825 90.754525,23.7122815 91.05,24.3 L87.25,25.88 Z M82.63,30 L84.5,30 L84.5,17.5 L82.63,17.5 L82.63,30 Z M79.57,22.7 L79.5,22.7 C78.9255491,22.0747262 78.1088181,21.7283448 77.26,21.75 C74.9901469,21.8600717 73.2063371,23.7324796 73.2063371,26.005 C73.2063371,28.2775204 74.9901469,30.1499283 77.26,30.26 C78.1183976,30.2772187 78.9397171,29.9105582 79.5,29.26 L79.57,29.26 L79.57,29.87 C79.57,31.5 78.7,32.37 77.3,32.37 C76.3435146,32.3489876 75.4943492,31.752597 75.15,30.86 L73.53,31.53 C74.1431493,33.0699895 75.6425851,34.0722649 77.3,34.05 C79.49,34.05 81.3,32.76 81.3,29.62 L81.3,22 L79.57,22 L79.57,22.7 Z M77.42,28.58 C76.0600866,28.4952122 75.0005459,27.367554 75.0005459,26.005 C75.0005459,24.642446 76.0600866,23.5147878 77.42,23.43 C78.0670204,23.4579218 78.6750106,23.747221 79.1047995,24.231676 C79.5345883,24.7161309 79.7493771,25.3542625 79.7,26 C79.7551348,26.6480494 79.5426575,27.2904311 79.1119703,27.7777877 C78.6812831,28.2651443 78.0699104,28.5550138 77.42,28.58 L77.42,28.58 Z M101.81,17.5 L97.33,17.5 L97.33,30 L99.2,30 L99.2,25.26 L101.81,25.26 C103.262684,25.3643638 104.651974,24.648509 105.41013,23.404973 C106.168286,22.161437 106.168286,20.598563 105.41013,19.355027 C104.651974,18.111491 103.262684,17.3956362 101.81,17.5 L101.81,17.5 Z M101.81,23.5 L99.2,23.5 L99.2,19.24 L101.85,19.24 C103.031889,19.24 103.99,20.1981106 103.99,21.38 C103.99,22.5618894 103.031889,23.52 101.85,23.52 L101.81,23.5 Z M113.35,21.71 C111.958089,21.6241747 110.648702,22.3752042 110.02,23.62 L111.67,24.31 C112.010603,23.695923 112.680401,23.3394806 113.38,23.4 C113.859528,23.3439946 114.341454,23.4829701 114.717528,23.7857102 C115.093603,24.0884503 115.332299,24.5295749 115.38,25.01 L115.38,25.13 C114.778663,24.8139168 114.109348,24.6491623 113.43,24.65 C111.65,24.65 109.83,25.65 109.83,27.47 C109.865569,28.2515813 110.216509,28.9853449 110.802624,29.5036142 C111.38874,30.0218835 112.159942,30.280368 112.94,30.22 C113.895412,30.2728479 114.805111,29.8065317 115.32,29 L115.38,29 L115.38,30 L117.18,30 L117.18,25.19 C117.18,23 115.52,21.73 113.39,21.73 L113.35,21.71 Z M113.12,28.56 C112.51,28.56 111.66,28.25 111.66,27.5 C111.66,26.5 112.72,26.16 113.66,26.16 C114.254042,26.1453419 114.841131,26.2903874 115.36,26.58 C115.230157,27.7031043 114.29036,28.5574651 113.16,28.58 L113.12,28.56 Z M123.74,22 L121.6,27.42 L121.54,27.42 L119.32,22 L117.32,22 L120.65,29.58 L118.75,33.79 L120.75,33.79 L125.82,22 L123.74,22 Z M106.94,30 L108.8,30 L108.8,17.5 L106.94,17.5 L106.94,30 Z" id="Shape" fill="#FFFFFF"></path>
                <path d="M10.44,7.54 C10.1212366,7.93405554 9.96397325,8.434439 10,8.94 L10,31.06 C9.96597397,31.5703792 10.1348935,32.0735438 10.47,32.46 L10.54,32.54 L22.9,20.15 L22.9,19.85 L10.51,7.47 L10.44,7.54 Z" id="Path" fill="url(#linearGradient-1)"></path>
                <path d="M27,24.28 L22.9,20.15 L22.9,19.85 L27,15.72 L27.09,15.78 L32,18.56 C33.4,19.35 33.4,20.65 32,21.45 L27.11,24.23 L27,24.28 Z" id="Path" fill="url(#linearGradient-2)"></path>
                <path d="M27.12,24.23 L22.9,20 L10.44,32.46 C11.0230326,32.9789708 11.89324,33.0083981 12.51,32.53 L27.12,24.23" id="Path" fill="url(#linearGradient-3)"></path>
                <path d="M27.12,15.78 L12.51,7.48 C11.8969646,6.9947215 11.0238977,7.02002779 10.44,7.54 L22.9,20 L27.12,15.78 Z" id="Path" fill="url(#linearGradient-4)"></path>
                <path d="M27,24.13 L12.51,32.38 C11.9181542,32.8266792 11.1018458,32.8266792 10.51,32.38 L10.51,32.38 L10.44,32.45 L10.44,32.45 L10.51,32.53 L10.51,32.53 C11.1018458,32.9766792 11.9181542,32.9766792 12.51,32.53 L27.12,24.23 L27,24.13 Z" id="Path" fill="#000000" opacity="0.2"></path>
                <path d="M10.44,32.32 C10.1187941,31.9233599 9.96138192,31.4189256 10,30.91 L10,31.06 C9.96597397,31.5703792 10.1348935,32.0735438 10.47,32.46 L10.54,32.39 L10.44,32.32 Z" id="Path" fill="#000000" opacity="0.12"></path>
                <path d="M32,21.3 L27,24.13 L27.09,24.23 L32,21.44 C32.5903954,21.1903582 32.9970603,20.6379078 33.06,20 L33.06,20 C32.9332082,20.5771002 32.5397617,21.059629 32,21.3 L32,21.3 Z" id="Path" fill="#000000" opacity="0.12"></path>
                <path d="M12.51,7.62 L32,18.7 C32.5397617,18.940371 32.9332082,19.4228998 33.06,20 L33.06,20 C32.9970603,19.3620922 32.5903954,18.8096418 32,18.56 L12.51,7.48 C11.12,6.68 10,7.34 10,8.94 L10,9.09 C10,7.49 11.12,6.83 12.51,7.62 Z" id="Path" fill="#FFFFFF" opacity="0.25"></path>
                <path d="M41.28,13 L41.28,7 L43.12,7 C43.93914,6.96301656 44.7377196,7.26293561 45.33,7.83 C45.8868943,8.41249455 46.1860204,9.19454728 46.16,10 C46.1860204,10.8054527 45.8868943,11.5875055 45.33,12.17 C44.7377196,12.7370644 43.93914,13.0369834 43.12,13 L41.28,13 Z M42.05,12.26 L43.12,12.26 C43.7235631,12.2905152 44.3142055,12.0780281 44.76,11.67 C45.1860443,11.2219631 45.4069609,10.6171586 45.37,10 C45.4219394,9.38793776 45.2019959,8.78401656 44.7686112,8.34870567 C44.3352265,7.91339479 43.7322866,7.69077532 43.12,7.74 L42.05,7.74 L42.05,12.26 Z" id="Shape" stroke="#FFFFFF" stroke-width="0.2" fill="#FFFFFF"></path>
                <polygon id="Path" stroke="#FFFFFF" stroke-width="0.2" fill="#FFFFFF" points="47.24 13 47.24 7 48 7 48 13"></polygon>
                <path d="M51.08,13.13 C50.6204519,13.1240126 50.1737585,12.9774413 49.8,12.71 C49.3858545,12.4269838 49.0931783,11.9986772 48.98,11.51 L49.69,11.22 C49.7676759,11.5465661 49.9460938,11.8404309 50.2,12.06 C50.4419337,12.2770548 50.7549758,12.3980029 51.08,12.4 C51.3885932,12.4072695 51.6909377,12.3123474 51.94,12.13 C52.167856,11.9665835 52.2991475,11.7002492 52.29,11.42 C52.3068354,11.1186059 52.1763408,10.8277894 51.94,10.64 C51.5928531,10.4109863 51.2113924,10.2388226 50.81,10.13 C50.3600011,10.0144641 49.9447773,9.79140999 49.6,9.48 C49.3300441,9.21830335 49.1814519,8.85588332 49.19,8.48 C49.1904053,8.04769437 49.3760811,7.63629505 49.7,7.35 C50.0579631,7.03289797 50.5218567,6.86161417 51,6.87 C51.4453224,6.8455745 51.8848249,6.98026076 52.24,7.25 C52.5279885,7.45542176 52.7447223,7.74556539 52.86,8.08 L52.16,8.37 C52.0967724,8.16090708 51.9668182,7.97826881 51.79,7.85 C51.5721192,7.67609189 51.2984843,7.58724938 51.02,7.6 C50.7457673,7.59553621 50.4780301,7.68360765 50.26,7.85 C50.0629473,7.99476582 49.9475811,8.22549837 49.95,8.47 C49.9523451,8.69210463 50.0599613,8.89991528 50.24,9.03 C50.496121,9.21940312 50.7839576,9.36162825 51.09,9.45 C51.3417704,9.52534319 51.5888678,9.61550037 51.83,9.72 C52.0426335,9.81756409 52.2438512,9.93829475 52.43,10.08 C52.630106,10.2185185 52.7890454,10.4085548 52.89,10.63 C53.0024325,10.8707499 53.0572145,11.1343884 53.05,11.4 C53.0545267,11.6707906 52.99273,11.9385763 52.87,12.18 C52.7600019,12.3988963 52.5944903,12.5850968 52.39,12.72 C52.1946221,12.8569021 51.978542,12.9615659 51.75,13.03 C51.5326073,13.0952439 51.3069696,13.1289212 51.08,13.13 L51.08,13.13 Z" id="Path" stroke="#FFFFFF" stroke-width="0.2" fill="#FFFFFF"></path>
                <path d="M55,13 L54.23,13 L54.23,7 L56.23,7 C56.7196295,6.99159534 57.1932151,7.17457158 57.55,7.51 C57.9072856,7.83766744 58.1106947,8.30021245 58.1106947,8.785 C58.1106947,9.26978755 57.9072856,9.73233256 57.55,10.06 C57.1932151,10.3954284 56.7196295,10.5784047 56.23,10.57 L55,10.57 L55,13 Z M55,9.83 L56.29,9.83 C56.5601847,9.82365771 56.8162982,9.70822625 57,9.51 C57.3873028,9.10425468 57.3873028,8.46574532 57,8.06 C56.7998695,7.84358825 56.5144552,7.72649523 56.22,7.74 L55,7.74 L55,9.83 Z" id="Shape" stroke="#FFFFFF" stroke-width="0.2" fill="#FFFFFF"></path>
                <path d="M64,12.22 C63.4277833,12.8199689 62.6288406,13.1504406 61.8,13.13 C60.9704555,13.1542515 60.1700228,12.8231635 59.6,12.22 C59.0047532,11.637074 58.6787236,10.8328678 58.7,10 C58.6761033,9.16862191 58.9984228,8.36463406 59.59,7.78 C60.1716025,7.19681883 60.9613728,6.86905802 61.785,6.86905802 C62.6086272,6.86905802 63.3983975,7.19681883 63.98,7.78 C64.5636065,8.36989591 64.8844986,9.17032322 64.87,10 C64.8898145,10.8267925 64.5762915,11.6268166 64,12.22 L64,12.22 Z M60.17,11.72 C60.5985801,12.155466 61.1840077,12.4006955 61.795,12.4006955 C62.4059923,12.4006955 62.9914199,12.155466 63.42,11.72 C63.8679656,11.2623342 64.1068247,10.6398528 64.08,10 C64.1041816,9.3586747 63.8616216,8.73598337 63.41,8.28 C62.9814199,7.84453401 62.3959923,7.59930454 61.785,7.59930454 C61.1740077,7.59930454 60.5885801,7.84453401 60.16,8.28 C59.7083784,8.73598337 59.4658184,9.3586747 59.49,10 C59.4658184,10.6413253 59.7083784,11.2640166 60.16,11.72 L60.17,11.72 Z" id="Shape" stroke="#FFFFFF" stroke-width="0.2" fill="#FFFFFF"></path>
                <polygon id="Path" stroke="#FFFFFF" stroke-width="0.2" fill="#FFFFFF" points="66 13 66 7 66.94 7 69.86 11.67 69.86 11.67 69.86 10.51 69.86 7 70.63 7 70.63 13 69.82 13 66.82 8.11 66.82 8.11 66.82 9.26 66.82 13"></polygon>
                <polygon id="Path" stroke="#FFFFFF" stroke-width="0.2" fill="#FFFFFF" points="72 13 72 7 72.77 7 72.77 13"></polygon>
                <path d="M74.1,13 L74.1,6.99994358 L76.27,6.99994358 C76.7196907,6.99645117 77.1545989,7.16043297 77.49,7.46 C77.8201321,7.75866366 78.0059087,8.18485705 78,8.63 C78.006751,8.89995315 77.929912,9.16539667 77.78,9.39 C77.6323852,9.60470984 77.4281632,9.77431794 77.19,9.88 L77.19,9.88 C77.4800671,9.97602197 77.7344622,10.1572349 77.92,10.4 C78.1079844,10.6428734 78.2068336,10.9429512 78.2,11.25 C78.2103361,11.7167258 78.0124315,12.1638434 77.66,12.47 C77.3129161,12.7929757 76.8540315,12.9686424 76.38,12.96 L74.1,13 Z M74.87,9.57 L76.27,9.57 C76.5348846,9.58244343 76.7915213,9.47612249 76.97,9.28 C77.1475291,9.1164058 77.250985,8.88771206 77.2566415,8.6463666 C77.262298,8.40502114 77.1696699,8.17173168 77,8 C76.8297783,7.8111661 76.5839686,7.70843964 76.33,7.72 L74.87,7.72 L74.87,9.57 Z M74.87,12.26 L76.42,12.26 C76.6942187,12.2691998 76.9582331,12.1555269 77.14,11.95 C77.3126652,11.7655769 77.4091275,11.5226349 77.41,11.27 C77.4039154,11.0194718 77.303988,10.7803596 77.13,10.6 C76.9350507,10.3953089 76.6625778,10.2826868 76.38,10.29 L74.87,10.29 L74.87,12.26 Z" id="Shape" stroke="#FFFFFF" stroke-width="0.2" fill="#FFFFFF"></path>
                <polygon id="Path" stroke="#FFFFFF" stroke-width="0.2" fill="#FFFFFF" points="79.24 13 79.24 7 80 7 80 12.26 82.6 12.26 82.6 13"></polygon>
                <polygon id="Path" stroke="#FFFFFF" stroke-width="0.2" fill="#FFFFFF" points="87.08 7.74 84.35 7.74 84.35 9.64 86.82 9.64 86.82 10.36 84.35 10.36 84.35 12.26 87.08 12.26 87.08 13 83.58 13 83.58 7 87.08 7"></polygon>
                <polygon id="Path" stroke="#FFFFFF" stroke-width="0.2" fill="#FFFFFF" points="93.81 7.74 91.07 7.74 91.07 9.64 93.54 9.64 93.54 10.36 91.07 10.36 91.07 12.26 93.81 12.26 93.81 13 90.3 13 90.3 7 93.81 7"></polygon>
                <polygon id="Path" stroke="#FFFFFF" stroke-width="0.2" fill="#FFFFFF" points="95 13 95 7 96 7 98.92 11.67 98.92 11.67 98.92 10.51 98.92 7 99.69 7 99.69 13 98.88 13 95.88 8.11 95.88 8.11 95.88 9.26 95.88 13"></polygon>
            </g>
        </g>
    </g>
</svg>